 <svg  version="1.0" xmlns="http://www.w3.org/2000/svg"  width="224.000000pt" height="224.000000pt" viewBox="0 0 224.000000 224.000000"  preserveAspectRatio="xMidYMid meet">  <g transform="translate(0.000000,224.000000) scale(0.050000,-0.050000)" fill="#e33d2b" stroke="none"> <path d="M823 4460 c-371 -56 -665 -310 -776 -670 -35 -112 -37 -216 -37 -1560 l0 -1440 47 -129 c111 -308 330 -520 633 -614 112 -35 216 -37 1560 -37 l1440 0 129 47 c308 111 520 330 614 633 35 112 37 216 37 1560 l0 1440 -46 127 c-109 302 -318 510 -612 611 -130 44 -2722 72 -2989 32z m648 -1835 c85 -140 166 -270 178 -289 20 -29 49 7 201 255 l176 289 167 0 168 0 -6 -665 -5 -665 -165 -6 -164 -6 -6 364 -5 363 -160 -256 c-88 -141 -169 -257 -180 -257 -11 0 -94 120 -185 268 l-165 268 0 -374 0 -374 -160 0 -160 0 0 670 0 670 158 0 158 0 155 -255z m1644 -146 c53 -31 65 -32 65 -8 0 23 32 29 150 29 l150 0 0 -480 0 -480 -150 0 c-121 0 -150 6 -150 30 0 26 -13 24 -79 -10 -495 -252 -913 532 -466 873 45 34 76 70 69 78 -8 9 -5 10 6 4 12 -7 52 -4 90 5 95 23 236 5 315 -41z"/> <path d="M2815 2193 c-195 -181 25 -487 262 -364 117 60 142 255 45 353 -79 78 -229 83 -307 11z"/> </g> </svg> 